<?xml version="1.0" encoding="UTF-8" standalone="no"?>
<!DOCTYPE svg PUBLIC "-//W3C//DTD SVG 1.1//EN" "http://www.w3.org/Graphics/SVG/1.1/DTD/svg11.dtd">
<svg version="1.1" xmlns="http://www.w3.org/2000/svg" xmlns:xlink="http://www.w3.org/1999/xlink" preserveAspectRatio="xMidYMid meet" viewBox="1.4018241442918566 2.4064699050352054 44.89270342283254 62.21674523467922" width="40.39" height="57.72"><defs><path d="M26.09 4.12L27.05 4.29L28 4.5L28.94 4.76L29.85 5.06L30.74 5.4L31.62 5.78L32.47 6.21L33.29 6.67L34.1 7.16L34.88 7.69L35.63 8.25L36.35 8.86L37.04 9.49L37.71 10.16L38.34 10.85L38.95 11.57L39.52 12.32L40.05 13.11L40.54 13.91L40.99 14.74L41.42 15.59L41.8 16.46L42.14 17.35L42.44 18.27L42.7 19.2L42.91 20.15L43.08 21.12L43.2 22.11L43.27 23.1L43.29 24.11L43.24 25.51L43.08 26.94L42.83 28.4L42.47 29.88L42.04 31.39L41.54 32.91L40.95 34.44L40.31 35.98L39.61 37.52L38.86 39.04L38.05 40.57L37.23 42.07L36.36 43.56L35.48 45.03L34.57 46.46L33.65 47.86L32.73 49.22L31.82 50.54L30.92 51.8L30.03 53.02L29.17 54.17L28.33 55.27L27.54 56.28L26.78 57.23L26.09 58.1L25.44 58.89L24.86 59.59L24.35 60.19L23.91 60.69L23.57 61.09L23.31 61.38L23.16 61.56L23.1 61.62L23.04 61.56L22.89 61.38L22.62 61.09L22.28 60.69L21.85 60.19L21.34 59.59L20.76 58.89L20.11 58.1L19.41 57.23L18.66 56.28L17.86 55.27L17.02 54.17L16.17 53.02L15.27 51.8L14.37 50.54L13.46 49.22L12.54 47.86L11.62 46.46L10.72 45.03L9.84 43.56L8.97 42.07L8.14 40.57L7.34 39.04L6.59 37.52L5.89 35.98L5.25 34.44L4.66 32.91L4.16 31.39L3.72 29.88L3.37 28.4L3.12 26.94L2.96 25.51L2.9 24.11L2.93 23.1L3 22.11L3.12 21.12L3.29 20.15L3.5 19.2L3.76 18.27L4.06 17.35L4.4 16.46L4.78 15.59L5.2 14.74L5.65 13.91L6.15 13.11L6.68 12.32L7.25 11.57L7.85 10.85L8.48 10.16L9.15 9.49L9.85 8.86L10.57 8.25L11.32 7.69L12.1 7.16L12.9 6.67L13.72 6.21L14.58 5.78L15.46 5.4L16.35 5.06L17.26 4.76L18.2 4.5L19.14 4.29L20.11 4.12L21.09 4.01L22.09 3.93L23.1 3.91L24.1 3.93L25.1 4.01L26.09 4.12ZM19.78 17.7L18.84 18.28L18 19L17.28 19.85L16.69 20.79L16.25 21.83L15.98 22.93L15.89 24.11L15.98 25.28L16.25 26.39L16.69 27.43L17.28 28.36L18 29.21L18.84 29.93L19.78 30.52L20.82 30.95L21.93 31.23L23.1 31.32L24.27 31.23L25.38 30.95L26.41 30.52L27.36 29.93L28.2 29.21L28.92 28.36L29.51 27.43L29.95 26.39L30.22 25.28L30.31 24.11L30.22 22.93L29.95 21.83L29.51 20.79L28.92 19.85L28.2 19L27.36 18.28L26.41 17.7L25.38 17.26L24.27 16.98L23.1 16.89L21.93 16.98L20.82 17.26L19.78 17.7Z" id="h1j8BKK3eR"></path><path d="M26.09 4.12L27.05 4.29L28 4.5L28.94 4.76L29.85 5.06L30.74 5.4L31.62 5.78L32.47 6.21L33.29 6.67L34.1 7.16L34.88 7.69L35.63 8.25L36.35 8.86L37.04 9.49L37.71 10.16L38.34 10.85L38.95 11.57L39.52 12.32L40.05 13.11L40.54 13.91L40.99 14.74L41.42 15.59L41.8 16.46L42.14 17.35L42.44 18.27L42.7 19.2L42.91 20.15L43.08 21.12L43.2 22.11L43.27 23.1L43.29 24.11L43.24 25.51L43.08 26.94L42.83 28.4L42.47 29.88L42.04 31.39L41.54 32.91L40.95 34.44L40.31 35.98L39.61 37.52L38.86 39.04L38.05 40.57L37.23 42.07L36.36 43.56L35.48 45.03L34.57 46.46L33.65 47.86L32.73 49.22L31.82 50.54L30.92 51.8L30.03 53.02L29.17 54.17L28.33 55.27L27.54 56.28L26.78 57.23L26.09 58.1L25.44 58.89L24.86 59.59L24.35 60.19L23.91 60.69L23.57 61.09L23.31 61.38L23.16 61.56L23.1 61.62L23.04 61.56L22.89 61.38L22.62 61.09L22.28 60.69L21.85 60.19L21.34 59.59L20.76 58.89L20.11 58.1L19.41 57.23L18.66 56.28L17.86 55.27L17.02 54.17L16.17 53.02L15.27 51.8L14.37 50.54L13.46 49.22L12.54 47.86L11.62 46.46L10.72 45.03L9.84 43.56L8.97 42.07L8.14 40.57L7.34 39.04L6.59 37.52L5.89 35.98L5.25 34.44L4.66 32.91L4.16 31.39L3.72 29.88L3.37 28.4L3.12 26.94L2.96 25.51L2.9 24.11L2.93 23.1L3 22.11L3.12 21.12L3.29 20.15L3.5 19.2L3.76 18.27L4.06 17.35L4.4 16.46L4.78 15.59L5.2 14.74L5.65 13.91L6.15 13.11L6.68 12.32L7.25 11.57L7.85 10.85L8.48 10.16L9.15 9.49L9.85 8.86L10.57 8.25L11.32 7.69L12.1 7.16L12.9 6.67L13.72 6.21L14.58 5.78L15.46 5.4L16.35 5.06L17.26 4.76L18.2 4.5L19.14 4.29L20.11 4.12L21.09 4.01L22.09 3.93L23.1 3.91L24.1 3.93L25.1 4.01L26.09 4.12ZM19.78 17.7L18.84 18.28L18 19L17.28 19.85L16.69 20.79L16.25 21.83L15.98 22.93L15.89 24.11L15.98 25.28L16.25 26.39L16.69 27.43L17.28 28.36L18 29.21L18.84 29.93L19.78 30.52L20.82 30.95L21.93 31.23L23.1 31.32L24.27 31.23L25.38 30.95L26.41 30.52L27.36 29.93L28.2 29.21L28.92 28.36L29.51 27.43L29.95 26.39L30.22 25.28L30.31 24.11L30.22 22.93L29.95 21.83L29.51 20.79L28.92 19.85L28.2 19L27.36 18.28L26.41 17.7L25.38 17.26L24.27 16.98L23.1 16.89L21.93 16.98L20.82 17.26L19.78 17.7Z" id="aFQkwJPss"></path><path d="M32.6 24.06C32.6 29.3 28.34 33.56 23.1 33.56C17.85 33.56 13.6 29.3 13.6 24.06C13.6 18.81 17.85 14.56 23.1 14.56C28.34 14.56 32.6 18.81 32.6 24.06Z" id="d5iwo7u9zw"></path></defs><g><g><use xlink:href="#h1j8BKK3eR" opacity="1" fill="#000000" fill-opacity="1"></use><g><use xlink:href="#h1j8BKK3eR" opacity="1" fill-opacity="0" stroke="#000000" stroke-width="1" stroke-opacity="0"></use></g></g><g><use xlink:href="#aFQkwJPss" opacity="1" fill="#000000" fill-opacity="0"></use><g><use xlink:href="#aFQkwJPss" opacity="1" fill-opacity="0" stroke="#ffffff" stroke-width="3" stroke-opacity="1"></use></g></g><g><use xlink:href="#d5iwo7u9zw" opacity="1" fill="#ffffff" fill-opacity="1"></use></g></g></svg>